# ProBuilder 4.0.5
# https://unity3d.com/unity/features/worldbuilding/probuilder
# 13/01/2020 19:34:16

mtllib ./CardModel.mtl
o CardModel

g CardModel
v 0.8113868 -0.009276211 1.250331
v -0.8113871 -0.009276211 1.250331
v 0.8113868 0.009276211 1.250331
v -0.8113871 0.009276211 1.250331
v -0.8113871 -0.009276211 -1.250331
v -0.8113871 0.009276211 -1.250331
v 0.8113868 -0.009276211 -1.250331
v 0.8113868 0.009276211 -1.250331

vt 0.8113868 -0.009276211
vt -0.8113871 -0.009276211
vt 0.8113868 0.009276211
vt -0.8113871 0.009276211
vt 1.250331 -0.009276211
vt -1.250331 -0.009276211
vt 1.250331 0.009276211
vt -1.250331 0.009276211
vt -0.8113868 1.250331
vt 0.8113871 1.250331
vt -0.8113868 -1.250331
vt 0.8113871 -1.250331

vn 0 0 1
vn -1 0 0
vn 0 0 -1
vn 1 0 0
vn 0 1 0
vn 0 -1 0

g CardModel
usemtl ProBuilderDefault
f 3/3/1 4/4/1 2/2/1 1/1/1
f 4/7/2 6/8/2 5/6/2 2/5/2
f 6/3/3 8/4/3 7/2/3 5/1/3
f 8/7/4 3/8/4 1/6/4 7/5/4
f 8/11/5 6/12/5 4/10/5 3/9/5
f 1/10/6 2/9/6 5/11/6 7/12/6

